<svg xmlns="http://www.w3.org/2000/svg" width="128" height="128" viewBox="0 0 32 32"><defs><path id="IconifyId19d8b8bbf0fa5659272" fill="url(#IconifyId19d8b8bbf0fa5659273)" d="M22.23 4.66a3.6 3.6 0 0 1 5.1.04A16.08 16.08 0 0 1 31.97 16a3.6 3.6 0 1 1-7.2 0c0-2.4-.98-4.61-2.58-6.24a3.6 3.6 0 0 1 .03-5.1z"/></defs><g fill="none"><g clip-path="url(#IconifyId19d8b8bbf0fa5659279)" transform="matrix(.8 0 0 .8 3.198 3.2)"><g fill-rule="evenodd" clip-rule="evenodd"><use href="#IconifyId19d8b8bbf0fa5659272"/><path fill="url(#IconifyId19d8b8bbf0fa5659274)" d="M12.4 3.6A3.6 3.6 0 0 1 16 0c4.4 0 8.4 1.8 11.29 4.66a3.603 3.603 0 0 1-5.06 5.13A8.87 8.87 0 0 0 16 7.2a3.6 3.6 0 0 1-3.6-3.6"/><path fill="url(#IconifyId19d8b8bbf0fa5659275)" d="M0 16A16 16 0 0 1 16 0a3.6 3.6 0 0 1 0 7.2a8.8 8.8 0 0 0-6.21 15.04a3.603 3.603 0 0 1-5.13 5.06A16.08 16.08 0 0 1 0 16"/><path fill="url(#IconifyId19d8b8bbf0fa5659276)" d="M4.66 22.24a3.6 3.6 0 0 1 5.1-.03a8.87 8.87 0 0 0 6.23 2.59a3.6 3.6 0 0 1 0 7.2c-4.4 0-8.4-1.8-11.3-4.66a3.6 3.6 0 0 1-.03-5.1"/><path fill="url(#IconifyId19d8b8bbf0fa5659277)" d="M28.38 12.4a3.6 3.6 0 0 1 3.6 3.6A16 16 0 0 1 16 32a3.6 3.6 0 0 1 0-7.2a8.8 8.8 0 0 0 8.8-8.8a3.6 3.6 0 0 1 3.6-3.6z"/><path fill="url(#IconifyId19d8b8bbf0fa5659278)" d="M28.38 12.4a3.6 3.6 0 0 1 3.6 3.6v12.4a3.6 3.6 0 1 1-7.2 0V16a3.6 3.6 0 0 1 3.6-3.6"/></g><g clip-path="url(#IconifyId19d8b8bbf0fa5659280)"><use href="#IconifyId19d8b8bbf0fa5659272" fill-rule="evenodd" clip-rule="evenodd"/></g></g><defs><linearGradient id="IconifyId19d8b8bbf0fa5659273" x1="26.4" x2="28.8" y1="9.6" y2="15.01" gradientUnits="userSpaceOnUse"><stop offset="0" stop-color="#7e22ce"/><stop offset="1" stop-color="#8b5cf6"/></linearGradient><linearGradient id="IconifyId19d8b8bbf0fa5659274" x1="26.8" x2="17.8" y1="9.4" y2="3.61" gradientUnits="userSpaceOnUse"><stop offset="0" stop-color="#ef4444"/><stop offset="1" stop-color="#dc2626"/></linearGradient><linearGradient id="IconifyId19d8b8bbf0fa5659275" x1="3.6" x2="5.4" y1="14.01" y2="24.81" gradientUnits="userSpaceOnUse"><stop offset="0" stop-color="#22c55e"/><stop offset="1" stop-color="#15803d"/></linearGradient><linearGradient id="IconifyId19d8b8bbf0fa5659276" x1="4.8" x2="14.4" y1="22.21" y2="29.21" gradientUnits="userSpaceOnUse"><stop offset="0" stop-color="#94a3b8"/><stop offset=".96" stop-color="#64748b"/><stop offset="1" stop-color="#64748b"/></linearGradient><linearGradient id="IconifyId19d8b8bbf0fa5659277" x1="28.4" x2="22.19" y1="22.18" y2="28.4" gradientUnits="userSpaceOnUse"><stop offset="0" stop-color="#d97706"/><stop offset="1" stop-color="#fbbf24"/></linearGradient><linearGradient id="IconifyId19d8b8bbf0fa5659278" x1="29.2" x2="30.63" y1="54.43" y2="54.28" gradientUnits="userSpaceOnUse"><stop offset="0" stop-color="#fbbf24"/><stop offset="1" stop-color="#fbbf24"/></linearGradient><clipPath id="IconifyId19d8b8bbf0fa5659279"><path fill="#fff" d="M0 0h32v32H0z"/></clipPath><clipPath id="IconifyId19d8b8bbf0fa5659280"><path fill="#fff" d="M24.8 12H32v8h-7.2z"/></clipPath></defs></g></svg>
